<svg width="373" height="195" viewBox="0 0 373 195" fill="none" xmlns="http://www.w3.org/2000/svg">
<path d="M94.5781 56.7764C94.5781 53.5862 97.1643 51 100.355 51H273.646C276.837 51 279.423 53.5862 279.423 56.7764V126.671C279.423 136.241 271.664 144 262.094 144H111.907C102.337 144 94.5781 136.241 94.5781 126.671V56.7764Z" fill="#8B929A"/>
<ellipse cx="258.388" cy="86.5726" rx="5.11853" ry="5.11853" fill="white"/>
<ellipse cx="258.388" cy="66.0985" rx="5.11853" ry="5.11853" fill="white"/>
<ellipse cx="268.625" cy="76.3358" rx="5.11853" ry="5.11853" fill="white"/>
<ellipse cx="248.15" cy="76.3358" rx="5.11853" ry="5.11853" fill="white"/>
<ellipse cx="115.213" cy="71.217" rx="10.2371" ry="10.2371" fill="white"/>
<rect x="104.976" y="112.39" width="20.4741" height="20.4741" rx="2.8882" fill="white"/>
<rect x="248.23" y="112.39" width="20.4741" height="20.4741" rx="2.8882" fill="white"/>
<rect x="135.59" y="60.8198" width="102.371" height="71.6594" fill="white"/>
<rect x="141.945" y="66.5962" width="19.8262" height="26.8237" fill="#8B929A"/>
<rect x="165.268" y="66.5962" width="19.8262" height="26.8237" fill="#8B929A"/>
<rect x="188.594" y="66.5962" width="19.8262" height="26.8237" fill="#8B929A"/>
<rect x="211.918" y="66.5962" width="19.8262" height="26.8237" fill="#8B929A"/>
<rect x="141.944" y="96.9189" width="19.8262" height="26.8237" fill="#8B929A"/>
<rect x="165.268" y="96.9189" width="19.8262" height="26.8237" fill="#8B929A"/>
<rect x="188.594" y="96.9189" width="19.8262" height="26.8237" fill="#8B929A"/>
<rect x="211.918" y="96.9189" width="19.8262" height="26.8237" fill="#8B929A"/>
<path d="M148.19 79.0893C149.088 79.0893 149.816 78.3615 149.816 77.4638C149.816 76.5661 149.088 75.8384 148.19 75.8384C147.293 75.8384 146.565 76.5661 146.565 77.4638C146.565 78.3615 147.293 79.0893 148.19 79.0893Z" fill="white"/>
<path d="M156.026 79.0893C156.924 79.0893 157.652 78.3615 157.652 77.4638C157.652 76.5661 156.924 75.8384 156.026 75.8384C155.129 75.8384 154.401 76.5661 154.401 77.4638C154.401 78.3615 155.129 79.0893 156.026 79.0893Z" fill="white"/>
<path d="M152.094 84.0637C150.724 84.0637 149.575 83.4608 148.977 82.9464L150.022 81.7245C150.223 81.8933 152.041 83.321 154.155 81.6987L155.134 82.9737C154.089 83.776 153.039 84.0637 152.094 84.0637Z" fill="white"/>
<path d="M148.19 109.704C149.088 109.704 149.816 108.976 149.816 108.079C149.816 107.181 149.088 106.453 148.19 106.453C147.293 106.453 146.565 107.181 146.565 108.079C146.565 108.976 147.293 109.704 148.19 109.704Z" fill="white"/>
<path d="M156.026 109.704C156.924 109.704 157.652 108.976 157.652 108.079C157.652 107.181 156.924 106.453 156.026 106.453C155.129 106.453 154.401 107.181 154.401 108.079C154.401 108.976 155.129 109.704 156.026 109.704Z" fill="white"/>
<path d="M152.094 114.678C150.724 114.678 149.575 114.076 148.977 113.561L150.022 112.339C150.223 112.508 152.041 113.936 154.155 112.313L155.134 113.588C154.089 114.391 153.039 114.678 152.094 114.678Z" fill="white"/>
<path d="M171.296 79.0893C172.194 79.0893 172.921 78.3615 172.921 77.4638C172.921 76.5661 172.194 75.8384 171.296 75.8384C170.398 75.8384 169.67 76.5661 169.67 77.4638C169.67 78.3615 170.398 79.0893 171.296 79.0893Z" fill="white"/>
<path d="M179.132 79.0893C180.03 79.0893 180.757 78.3615 180.757 77.4638C180.757 76.5661 180.03 75.8384 179.132 75.8384C178.234 75.8384 177.506 76.5661 177.506 77.4638C177.506 78.3615 178.234 79.0893 179.132 79.0893Z" fill="white"/>
<path d="M175.199 84.0637C173.83 84.0637 172.68 83.4608 172.082 82.9464L173.127 81.7245C173.328 81.8933 175.146 83.321 177.261 81.6987L178.24 82.9737C177.195 83.776 176.145 84.0637 175.199 84.0637Z" fill="white"/>
<path d="M171.296 109.704C172.194 109.704 172.921 108.976 172.921 108.079C172.921 107.181 172.194 106.453 171.296 106.453C170.398 106.453 169.67 107.181 169.67 108.079C169.67 108.976 170.398 109.704 171.296 109.704Z" fill="white"/>
<path d="M179.132 109.704C180.03 109.704 180.757 108.976 180.757 108.079C180.757 107.181 180.03 106.453 179.132 106.453C178.234 106.453 177.506 107.181 177.506 108.079C177.506 108.976 178.234 109.704 179.132 109.704Z" fill="white"/>
<path d="M175.199 114.678C173.83 114.678 172.68 114.076 172.082 113.561L173.127 112.339C173.328 112.508 175.146 113.936 177.261 112.313L178.24 113.588C177.195 114.391 176.145 114.678 175.199 114.678Z" fill="white"/>
<path d="M194.402 79.0893C195.3 79.0893 196.027 78.3615 196.027 77.4638C196.027 76.5661 195.3 75.8384 194.402 75.8384C193.504 75.8384 192.776 76.5661 192.776 77.4638C192.776 78.3615 193.504 79.0893 194.402 79.0893Z" fill="white"/>
<path d="M202.238 79.0893C203.135 79.0893 203.863 78.3615 203.863 77.4638C203.863 76.5661 203.135 75.8384 202.238 75.8384C201.34 75.8384 200.612 76.5661 200.612 77.4638C200.612 78.3615 201.34 79.0893 202.238 79.0893Z" fill="white"/>
<path d="M198.305 84.0637C196.936 84.0637 195.786 83.4608 195.188 82.9464L196.233 81.7245C196.434 81.8933 198.252 83.321 200.367 81.6987L201.346 82.9737C200.301 83.776 199.251 84.0637 198.305 84.0637Z" fill="white"/>
<path d="M194.402 109.704C195.3 109.704 196.027 108.976 196.027 108.079C196.027 107.181 195.3 106.453 194.402 106.453C193.504 106.453 192.776 107.181 192.776 108.079C192.776 108.976 193.504 109.704 194.402 109.704Z" fill="white"/>
<path d="M202.238 109.704C203.135 109.704 203.863 108.976 203.863 108.079C203.863 107.181 203.135 106.453 202.238 106.453C201.34 106.453 200.612 107.181 200.612 108.079C200.612 108.976 201.34 109.704 202.238 109.704Z" fill="white"/>
<path d="M198.305 114.678C196.936 114.678 195.786 114.076 195.188 113.561L196.233 112.339C196.434 112.508 198.252 113.936 200.367 112.313L201.346 113.588C200.301 114.391 199.251 114.678 198.305 114.678Z" fill="white"/>
<path d="M217.507 79.0893C218.405 79.0893 219.133 78.3615 219.133 77.4638C219.133 76.5661 218.405 75.8384 217.507 75.8384C216.61 75.8384 215.882 76.5661 215.882 77.4638C215.882 78.3615 216.61 79.0893 217.507 79.0893Z" fill="white"/>
<path d="M225.343 79.0893C226.241 79.0893 226.969 78.3615 226.969 77.4638C226.969 76.5661 226.241 75.8384 225.343 75.8384C224.446 75.8384 223.718 76.5661 223.718 77.4638C223.718 78.3615 224.446 79.0893 225.343 79.0893Z" fill="white"/>
<path d="M221.411 84.0637C220.041 84.0637 218.892 83.4608 218.293 82.9464L219.339 81.7245C219.539 81.8933 221.358 83.321 223.472 81.6987L224.451 82.9737C223.406 83.776 222.356 84.0637 221.411 84.0637Z" fill="white"/>
<path d="M217.507 109.704C218.405 109.704 219.133 108.976 219.133 108.079C219.133 107.181 218.405 106.453 217.507 106.453C216.61 106.453 215.882 107.181 215.882 108.079C215.882 108.976 216.61 109.704 217.507 109.704Z" fill="white"/>
<path d="M225.343 109.704C226.241 109.704 226.969 108.976 226.969 108.079C226.969 107.181 226.241 106.453 225.343 106.453C224.446 106.453 223.718 107.181 223.718 108.079C223.718 108.976 224.446 109.704 225.343 109.704Z" fill="white"/>
<path d="M221.411 114.678C220.041 114.678 218.892 114.076 218.293 113.561L219.339 112.339C219.539 112.508 221.358 113.936 223.472 112.313L224.451 113.588C223.406 114.391 222.356 114.678 221.411 114.678Z" fill="white"/>
</svg>
