<svg width="373" height="195" viewBox="0 0 373 195" fill="none" xmlns="http://www.w3.org/2000/svg">
<circle cx="187.5" cy="97.5" r="49.5" fill="#8B929A"/>
<path d="M212.319 97.2783C212.322 101.814 211.107 106.267 208.803 110.164C206.499 114.061 203.191 117.258 199.231 119.417C195.271 121.576 190.805 122.615 186.306 122.426C181.807 122.237 177.443 120.826 173.675 118.343C169.907 115.859 166.876 112.395 164.902 108.318C162.929 104.241 162.086 99.7024 162.463 95.1822C162.841 90.6621 164.425 86.3289 167.047 82.6413C169.669 78.9537 173.232 76.049 177.359 74.2345V81.8319C174.05 84.0012 171.526 87.1895 170.162 90.9216C168.798 94.6538 168.668 98.7299 169.791 102.543C170.914 106.355 173.23 109.7 176.394 112.079C179.558 114.458 183.4 115.743 187.347 115.743C191.295 115.743 195.137 114.458 198.301 112.079C201.465 109.7 203.781 106.355 204.904 102.543C206.027 98.7299 205.897 94.6538 204.533 90.9216C203.169 87.1895 200.645 84.0012 197.336 81.8319V74.2345C201.788 76.1916 205.576 79.4139 208.237 83.5068C210.898 87.5997 212.317 92.3855 212.319 97.2783ZM190.677 68.7671H184.018V92.2469H190.677V68.7671Z" fill="white"/>
</svg>
