<svg width="373" height="195" viewBox="0 0 373 195" fill="none" xmlns="http://www.w3.org/2000/svg">
<rect x="105.811" y="32.6942" width="161.912" height="34.6116" stroke="#8B929A" stroke-width="3.38833"/>
<rect x="105.811" y="79.5614" width="161.912" height="34.6116" stroke="#8B929A" stroke-width="3.38833"/>
<rect x="105.811" y="127.694" width="161.912" height="34.6116" fill="#8B929A" stroke="#8B929A" stroke-width="3.38833"/>
<path d="M120.985 47.2244C121.325 47.2244 121.698 47.2573 122.104 47.3232C122.51 47.389 122.823 47.4604 123.043 47.5372H125.299L123.817 55.9352C123.575 57.2855 123.015 58.2625 122.137 58.8663C121.259 59.481 120.178 59.7884 118.893 59.7884C118.246 59.7884 117.642 59.7171 117.082 59.5743C116.522 59.4316 116.055 59.245 115.682 59.0145L116.407 56.9232C116.769 57.1098 117.17 57.2525 117.609 57.3513C118.048 57.4611 118.493 57.516 118.943 57.516C119.579 57.516 120.079 57.3843 120.441 57.1208C120.814 56.8573 121.067 56.4127 121.199 55.787L121.495 54.4861H121.396C121.1 54.9692 120.727 55.3095 120.276 55.5071C119.826 55.7047 119.376 55.8035 118.926 55.8035C118.41 55.8035 117.927 55.6772 117.477 55.4247C117.027 55.1723 116.659 54.799 116.374 54.305C116.099 53.8 115.962 53.1908 115.962 52.4772C115.962 51.588 116.176 50.7427 116.604 49.9414C117.043 49.129 117.647 48.4758 118.416 47.9818C119.184 47.4768 120.04 47.2244 120.985 47.2244ZM121.1 49.4144C120.419 49.4144 119.876 49.6834 119.47 50.2213C119.063 50.7592 118.86 51.4124 118.86 52.1808C118.86 52.6638 118.959 53.0316 119.157 53.2841C119.365 53.5366 119.651 53.6628 120.013 53.6628C120.441 53.6628 120.809 53.4927 121.116 53.1523C121.435 52.8011 121.649 52.3235 121.758 51.7198L122.137 49.612C121.852 49.4803 121.506 49.4144 121.1 49.4144ZM131.039 47.2244C131.742 47.2244 132.378 47.3671 132.949 47.6525C133.531 47.9269 133.992 48.3551 134.333 48.9369C134.673 49.5077 134.843 50.2103 134.843 51.0446C134.843 51.9667 134.64 52.8395 134.234 53.6628C133.828 54.4861 133.235 55.1503 132.455 55.6553C131.687 56.1603 130.787 56.4127 129.755 56.4127C128.975 56.4127 128.289 56.2591 127.696 55.9517C127.115 55.6333 126.659 55.1832 126.33 54.6014C126.011 54.0196 125.852 53.3335 125.852 52.5431C125.852 51.588 126.055 50.7098 126.461 49.9084C126.868 49.0961 127.46 48.4484 128.24 47.9654C129.019 47.4714 129.952 47.2244 131.039 47.2244ZM130.71 49.4803C130.04 49.4803 129.508 49.7657 129.113 50.3366C128.728 50.9074 128.536 51.599 128.536 52.4113C128.536 52.9493 128.657 53.3774 128.899 53.6957C129.14 54.0031 129.486 54.1568 129.936 54.1568C130.595 54.1568 131.127 53.8714 131.533 53.3005C131.95 52.7297 132.159 52.0271 132.159 51.1928C132.159 50.633 132.027 50.2103 131.764 49.9249C131.511 49.6285 131.16 49.4803 130.71 49.4803ZM141.851 47.2244C142.235 47.2244 142.603 47.3177 142.954 47.5043L142.329 49.9249C142.087 49.7712 141.774 49.6944 141.39 49.6944C140.841 49.6944 140.391 49.9194 140.04 50.3695C139.688 50.8196 139.419 51.5441 139.233 52.5431L138.558 56.1328H135.874L137.026 49.7108C137.037 49.6669 137.043 49.6065 137.043 49.5297C137.043 49.2662 136.895 49.1345 136.598 49.1345C136.477 49.1345 136.324 49.1619 136.137 49.2168L136.433 47.4878C136.576 47.4439 136.774 47.4 137.026 47.3561C137.279 47.3122 137.509 47.2902 137.718 47.2902C138.212 47.2902 138.613 47.4165 138.92 47.669C139.238 47.9214 139.386 48.2837 139.365 48.7558L139.315 49.118H139.414C139.666 48.5252 139.996 48.0642 140.402 47.7348C140.819 47.3945 141.302 47.2244 141.851 47.2244ZM150.888 53.811C150.877 53.8549 150.871 53.9153 150.871 53.9921C150.871 54.2446 151.014 54.3709 151.3 54.3709C151.354 54.3709 151.459 54.3599 151.612 54.3379L151.3 56.0669C151.003 56.2206 150.608 56.2975 150.114 56.2975C149.543 56.2975 149.132 56.1328 148.879 55.8035C148.627 55.4632 148.517 55.0515 148.55 54.5685H148.467C148.204 55.1613 147.814 55.6169 147.298 55.9352C146.782 56.2536 146.211 56.4127 145.586 56.4127C144.696 56.4127 143.983 56.0944 143.445 55.4577C142.918 54.821 142.655 53.9702 142.655 52.9053C142.655 52.0271 142.836 51.1544 143.198 50.2872C143.571 49.4199 144.142 48.7009 144.911 48.13C145.679 47.5592 146.629 47.2738 147.759 47.2738C148.385 47.2738 148.906 47.3616 149.324 47.5372L149.966 43.7499H152.65L150.888 53.811ZM148.961 49.7602C148.83 49.6834 148.659 49.6285 148.451 49.5956C148.242 49.5516 148.045 49.5297 147.858 49.5297C147.134 49.5297 146.557 49.8151 146.129 50.386C145.712 50.9458 145.503 51.6319 145.503 52.4443C145.503 53.0041 145.608 53.4158 145.816 53.6793C146.036 53.9427 146.332 54.0745 146.705 54.0745C147.166 54.0745 147.573 53.8604 147.924 53.4323C148.286 53.0041 148.522 52.4333 148.632 51.7198L148.961 49.7602ZM158.023 47.2244C158.725 47.2244 159.362 47.3671 159.933 47.6525C160.515 47.9269 160.976 48.3551 161.316 48.9369C161.656 49.5077 161.826 50.2103 161.826 51.0446C161.826 51.9667 161.623 52.8395 161.217 53.6628C160.811 54.4861 160.218 55.1503 159.439 55.6553C158.67 56.1603 157.77 56.4127 156.738 56.4127C155.959 56.4127 155.273 56.2591 154.68 55.9517C154.098 55.6333 153.643 55.1832 153.313 54.6014C152.995 54.0196 152.836 53.3335 152.836 52.5431C152.836 51.588 153.039 50.7098 153.445 49.9084C153.851 49.0961 154.444 48.4484 155.223 47.9654C156.003 47.4714 156.936 47.2244 158.023 47.2244ZM157.693 49.4803C157.024 49.4803 156.491 49.7657 156.096 50.3366C155.712 50.9074 155.52 51.599 155.52 52.4113C155.52 52.9493 155.64 53.3774 155.882 53.6957C156.123 54.0031 156.469 54.1568 156.919 54.1568C157.578 54.1568 158.11 53.8714 158.517 53.3005C158.934 52.7297 159.142 52.0271 159.142 51.1928C159.142 50.633 159.011 50.2103 158.747 49.9249C158.495 49.6285 158.143 49.4803 157.693 49.4803ZM169.724 47.2244C170.514 47.2244 171.118 47.4165 171.535 47.8007C171.952 48.1739 172.161 48.6844 172.161 49.3321C172.161 49.8041 172.007 50.7976 171.7 52.3125C171.513 53.2676 171.42 53.8275 171.42 53.9921C171.42 54.2446 171.551 54.3709 171.815 54.3709C171.87 54.3709 171.985 54.3599 172.161 54.3379L171.815 56.0834C171.661 56.1493 171.458 56.1987 171.206 56.2316C170.953 56.2755 170.701 56.2975 170.448 56.2975C169.833 56.2975 169.378 56.1712 169.081 55.9187C168.785 55.6553 168.637 55.293 168.637 54.8319C168.637 54.4697 168.758 53.6848 168.999 52.4772C169.219 51.3575 169.328 50.6659 169.328 50.4024C169.328 49.8535 169.043 49.5791 168.472 49.5791C168 49.5791 167.545 49.8206 167.105 50.3036C166.677 50.7866 166.364 51.588 166.167 52.7077L165.558 56.1328H162.873L163.993 49.8426C164.004 49.7767 164.01 49.6889 164.01 49.5791C164.01 49.2717 163.872 49.118 163.598 49.118C163.477 49.118 163.318 49.151 163.12 49.2168L163.4 47.4878C163.543 47.4439 163.735 47.4055 163.977 47.3726C164.218 47.3286 164.443 47.3067 164.652 47.3067C165.179 47.3067 165.59 47.4384 165.887 47.7019C166.194 47.9544 166.342 48.3331 166.331 48.8381L166.282 49.1345H166.364C167.144 47.8611 168.264 47.2244 169.724 47.2244Z" fill="#8B929A"/>
<path d="M160.027 140.593C160.828 140.593 161.574 140.709 162.266 140.939C162.958 141.159 163.529 141.433 163.979 141.762L162.777 143.887C162.381 143.601 161.931 143.371 161.426 143.195C160.932 143.019 160.471 142.932 160.043 142.932C159.593 142.932 159.242 143.025 158.989 143.212C158.737 143.387 158.61 143.629 158.61 143.936C158.61 144.265 158.77 144.529 159.088 144.726C159.417 144.913 159.928 145.122 160.619 145.352C161.377 145.616 161.986 145.863 162.447 146.093C162.919 146.324 163.331 146.67 163.682 147.131C164.033 147.581 164.209 148.168 164.209 148.893C164.209 149.661 164.006 150.325 163.6 150.885C163.205 151.445 162.65 151.873 161.937 152.169C161.234 152.455 160.427 152.598 159.516 152.598C158.781 152.598 158.04 152.504 157.293 152.318C156.558 152.131 155.904 151.867 155.334 151.527L156.19 149.156C157.397 149.782 158.523 150.095 159.566 150.095C160.081 150.095 160.471 149.996 160.735 149.798C160.998 149.601 161.13 149.343 161.13 149.024C161.13 148.706 160.982 148.459 160.685 148.283C160.389 148.097 159.928 147.91 159.302 147.723C158.49 147.471 157.842 147.235 157.359 147.015C156.876 146.785 156.459 146.439 156.108 145.978C155.756 145.506 155.581 144.886 155.581 144.117C155.581 143.393 155.767 142.767 156.14 142.24C156.514 141.702 157.035 141.296 157.705 141.021C158.374 140.736 159.148 140.593 160.027 140.593ZM165.881 140.873H168.73V152.4H165.881V140.873ZM176.479 140.593C177.346 140.593 178.131 140.714 178.834 140.956C179.547 141.186 180.168 141.488 180.694 141.861L179.344 143.985C178.532 143.48 177.632 143.228 176.644 143.228C175.711 143.228 174.959 143.519 174.388 144.101C173.828 144.672 173.548 145.511 173.548 146.62C173.548 147.696 173.811 148.536 174.338 149.14C174.876 149.732 175.568 150.029 176.413 150.029C177.149 150.029 177.752 149.864 178.224 149.535V147.756H175.672V145.484H180.941V151.017C180.404 151.522 179.734 151.922 178.933 152.219C178.142 152.515 177.269 152.663 176.314 152.663C175.315 152.663 174.371 152.449 173.482 152.021C172.604 151.593 171.885 150.94 171.325 150.062C170.776 149.172 170.502 148.069 170.502 146.752C170.502 145.445 170.771 144.331 171.308 143.409C171.846 142.476 172.565 141.773 173.466 141.301C174.377 140.829 175.381 140.593 176.479 140.593ZM190.286 147.526V140.873H193.184V152.4H190.796L185.84 145.846V152.4H182.991V140.873H185.395L190.286 147.526ZM199.699 140.873H202.548V152.4H199.699V140.873ZM212.075 147.526V140.873H214.973V152.4H212.586L207.629 145.846V152.4H204.78V140.873H207.185L212.075 147.526Z" fill="white"/>
<path d="M121.676 99.0814H119.519L119.964 96.1504L117.576 98.0605L116.522 96.2492L119.486 95.2941L116.571 94.2238L117.543 92.4454L119.997 94.3226L119.503 91.4738H121.676L121.116 94.3061L123.603 92.4618L124.624 94.2238L121.594 95.2612L124.722 96.2656L123.669 98.0605L121.133 96.0845L121.676 99.0814ZM131.871 99.0814H129.714L130.159 96.1504L127.771 98.0605L126.717 96.2492L129.681 95.2941L126.767 94.2238L127.738 92.4454L130.192 94.3226L129.698 91.4738H131.871L131.311 94.3061L133.798 92.4618L134.819 94.2238L131.789 95.2612L134.918 96.2656L133.864 98.0605L131.328 96.0845L131.871 99.0814ZM142.066 99.0814H139.909L140.354 96.1504L137.966 98.0605L136.912 96.2492L139.876 95.2941L136.962 94.2238L137.933 92.4454L140.387 94.3226L139.893 91.4738H142.066L141.507 94.3061L143.993 92.4618L145.014 94.2238L141.984 95.2612L145.113 96.2656L144.059 98.0605L141.523 96.0845L142.066 99.0814ZM152.262 99.0814H150.104L150.549 96.1504L148.161 98.0605L147.108 96.2492L150.072 95.2941L147.157 94.2238L148.128 92.4454L150.582 94.3226L150.088 91.4738H152.262L151.702 94.3061L154.188 92.4618L155.209 94.2238L152.179 95.2612L155.308 96.2656L154.254 98.0605L151.718 96.0845L152.262 99.0814ZM162.457 99.0814H160.3L160.744 96.1504L158.357 98.0605L157.303 96.2492L160.267 95.2941L157.352 94.2238L158.324 92.4454L160.777 94.3226L160.283 91.4738H162.457L161.897 94.3061L164.383 92.4618L165.404 94.2238L162.374 95.2612L165.503 96.2656L164.449 98.0605L161.913 96.0845L162.457 99.0814ZM172.652 99.0814H170.495L170.939 96.1504L168.552 98.0605L167.498 96.2492L170.462 95.2941L167.547 94.2238L168.519 92.4454L170.972 94.3226L170.478 91.4738H172.652L172.092 94.3061L174.579 92.4618L175.599 94.2238L172.57 95.2612L175.698 96.2656L174.644 98.0605L172.109 96.0845L172.652 99.0814ZM182.847 99.0814H180.69L181.135 96.1504L178.747 98.0605L177.693 96.2492L180.657 95.2941L177.742 94.2238L178.714 92.4454L181.168 94.3226L180.674 91.4738H182.847L182.287 94.3061L184.774 92.4618L185.795 94.2238L182.765 95.2612L185.893 96.2656L184.84 98.0605L182.304 96.0845L182.847 99.0814ZM193.042 99.0814H190.885L191.33 96.1504L188.942 98.0605L187.888 96.2492L190.852 95.2941L187.938 94.2238L188.909 92.4454L191.363 94.3226L190.869 91.4738H193.042L192.482 94.3061L194.969 92.4618L195.99 94.2238L192.96 95.2612L196.089 96.2656L195.035 98.0605L192.499 96.0845L193.042 99.0814ZM203.237 99.0814H201.08L201.525 96.1504L199.137 98.0605L198.083 96.2492L201.047 95.2941L198.133 94.2238L199.104 92.4454L201.558 94.3226L201.064 91.4738H203.237L202.678 94.3061L205.164 92.4618L206.185 94.2238L203.155 95.2612L206.284 96.2656L205.23 98.0605L202.694 96.0845L203.237 99.0814Z" fill="#8B929A"/>
</svg>
