<svg width="796" height="226" viewBox="0 0 796 226" fill="none" xmlns="http://www.w3.org/2000/svg">
<path d="M244.034 126.209H273.366L258.091 70.1113L244.034 126.209Z" fill="#F74843"/>
<path d="M0.0161133 225.042H764.534V0H0.0161133V225.042ZM124.179 179.129H99.9818L60.4656 46.523H86.6212L112.124 146.619L136.974 46.523H164.392L124.179 179.129ZM287.379 179.129L278.458 145.966H238.942C238.942 145.966 232.065 172.644 230.673 178.476C222.708 179.085 203.255 178.476 203.255 178.476L240.856 46.523H276.543L314.144 179.129H287.379ZM455.628 179.129H374.028V46.523H400.14V156.803H455.585V179.129H455.628ZM551.242 179.129H527.654L487.485 46.523H514.293L539.796 145.357L564.646 46.523H591.411L551.242 179.129ZM701.691 63.757H666.004V82.8623H698.514V100.053H666.004V119.811H701.691V137.045H646.246V46.523H701.734V63.757H701.691Z" fill="#F74843"/>
<path d="M782.986 0C790.167 0 795.868 5.83171 795.868 13.1431C795.868 20.5415 790.167 26.3297 782.899 26.3297C775.718 26.3297 769.887 20.5415 769.887 13.1431C769.887 5.83171 775.718 0 782.899 0H782.986ZM782.899 2.04545C777.111 2.04545 772.367 7.00676 772.367 13.1431C772.367 19.41 777.111 24.2842 782.943 24.2842C788.774 24.3277 793.431 19.41 793.431 13.1866C793.431 7.00673 788.774 2.04545 782.943 2.04545H782.899ZM780.462 20.7591H778.112V6.13635C779.331 5.96227 780.506 5.78818 782.246 5.78818C784.466 5.78818 785.946 6.2669 786.816 6.87618C787.686 7.52899 788.165 8.52993 788.165 9.92258C788.165 11.8375 786.86 13.0125 785.293 13.4913V13.6218C786.555 13.8829 787.469 15.0144 787.73 17.1904C788.078 19.4535 788.426 20.3239 788.687 20.8026H786.207C785.858 20.3239 785.51 18.9748 785.206 17.0599C784.858 15.1885 783.9 14.4922 782.029 14.4922H780.375V20.7591H780.462ZM780.462 12.6644H782.159C784.074 12.6644 785.728 11.968 785.728 10.1402C785.728 8.83459 784.77 7.57252 782.159 7.57252C781.419 7.57252 780.854 7.61604 780.462 7.70308V12.6644Z" fill="#F74843"/>
</svg>
